<?xml version="1.0" encoding="iso-8859-1"?>
<!-- Generator: Adobe Illustrator 16.0.0, SVG Export Plug-In . SVG Version: 6.00 Build 0)  -->
<!DOCTYPE svg PUBLIC "-//W3C//DTD SVG 1.1//EN" "http://www.w3.org/Graphics/SVG/1.1/DTD/svg11.dtd">
<svg version="1.1" id="Capa_1" xmlns="http://www.w3.org/2000/svg" xmlns:xlink="http://www.w3.org/1999/xlink" x="0px" y="0px"
	 width="536.662px" height="536.661px" viewBox="0 0 536.662 536.661" style="enable-background:new 0 0 536.662 536.661;"
	 xml:space="preserve">
<g>
	<path d="M524.557,169.47H227.343c-23.043-20.087-53.141-32.278-86.117-32.278c-32.961,0-63.068,12.191-86.111,32.278H12.105
		C5.423,169.47,0,174.893,0,181.575v173.511c0,6.679,5.423,12.105,12.105,12.105h20.173v32.278h55.987v-11.302
		c16.21,7.193,34.087,11.296,52.96,11.296c32.967,0,63.074-12.188,86.117-32.278h221.054v32.278h55.986v-32.278h20.174
		c6.679,0,12.104-5.421,12.104-12.105V181.575C536.662,174.887,531.248,169.47,524.557,169.47z M137.195,367.186
		c-54.601,0-98.863-44.254-98.863-98.858c0-54.601,44.263-98.858,98.863-98.858s98.857,44.263,98.857,98.858
		C236.052,322.92,191.79,367.186,137.195,367.186z M501.357,325.319H375.765v-18.158h125.592V325.319z M501.357,270.846H375.765
		v-18.158h125.592V270.846z M501.357,219.398H375.765V201.24h125.592V219.398z M163.214,204.689
		c4.165,2.557,7.917,5.503,11.301,8.748c-29.016-10.146-62.166,0.866-78.891,28.144c-16.716,27.278-11.476,61.815,10.74,83.064
		c-4.427-1.543-8.76-3.547-12.93-6.101c-31.437-19.263-41.305-60.372-22.044-91.812C90.663,195.291,131.772,185.423,163.214,204.689
		z M452.936,165.433h-44.384v-5.042h44.384V165.433z M508.415,165.433h-44.384v-5.042h44.384V165.433z"/>
</g>
<g>
</g>
<g>
</g>
<g>
</g>
<g>
</g>
<g>
</g>
<g>
</g>
<g>
</g>
<g>
</g>
<g>
</g>
<g>
</g>
<g>
</g>
<g>
</g>
<g>
</g>
<g>
</g>
<g>
</g>
</svg>
